<svg width="400" height="400" x="0" y="0" viewBox="0 0 312 312">
  <path
    d="M 273.6 215 c 49.1 -49.1 49.1 -129 0 -178.1 c -49.1 -49.1 -129 -49.1 -178.1 0 C 53.8 78.5 47.5 140.5 76.5 188.8 c 0 0 2.1 3.5 -0.7 6.3 c -16.1 16.1 -64.3 64.3 -64.3 64.3 c -12.8 12.8 -15.8 30.7 -4.5 42 l 2 2 c 11.3 11.3 29.2 8.3 42 -4.5 c 0 0 48.1 -48.1 64.1 -64.1 c 3 -3 6.4 -0.9 6.4 -0.9 C 170 262.9 231.9 256.6 273.6 215 z M 118.7 191.7 c -36.3 -36.3 -36.3 -95.3 0 -131.6 c 36.3 -36.3 95.3 -36.3 131.6 0 c 36.3 36.3 36.3 95.3 0 131.6 C 214 228 155 228 118.7 191.7 z"
    fill="#000000" />
  <path
    d="M 126.8 118.4 c -1.7 0 -3.4 -0.3 -5.1 -1 c -6.6 -2.8 -9.7 -10.4 -6.9 -17 c 17.6 -41.6 65.7 -61.1 107.3 -43.5 c 6.6 2.8 9.7 10.4 6.9 17 c -2.8 6.6 -10.4 9.7 -17 6.9 c -28.4 -12 -61.2 1.3 -73.2 29.7 C 136.6 115.4 131.8 118.4 126.8 118.4 z"
    fill="#000000" />
</svg>
